<svg xmlns="http://www.w3.org/2000/svg" width="29" height="29" viewBox="0 0 29 29">
  <g fill="#FEFEFE">
    <path d="M20.3607436,0 L8.63925638,0 C3.87555033,0 0,3.87555033 0,8.63925638 L0,20.3607436 C0,25.1244497 3.87555033,29 8.63925638,29 L20.3607436,29 C25.1244497,29 29,25.1244497 29,20.3607436 L29,8.63925638 C28.9999474,3.87555033 25.124397,0 20.3607436,0 Z M26.0826011,20.3607436 C26.0826011,23.5208118 23.5208118,26.0826011 20.3607436,26.0826011 L8.63925638,26.0826011 C5.47918822,26.0826011 2.91739893,23.5208118 2.91739893,20.3607436 L2.91739893,8.63925638 C2.91739893,5.47913559 5.47918822,2.91739893 8.63925638,2.91739893 L20.3607436,2.91739893 C23.5208118,2.91739893 26.0826011,5.47913559 26.0826011,8.63925638 L26.0826011,20.3607436 Z"/>
    <path d="M14.5,7 C10.3644934,7 7,10.3645052 7,14.4999737 C7,18.6354422 10.3644934,22 14.5,22 C18.6355066,22 22,18.6354948 22,14.4999737 C22,10.3644525 18.6355066,7 14.5,7 Z M14.5,19.0828115 C11.9689862,19.0828115 9.91723093,17.031049 9.91723093,14.5000263 C9.91723093,11.9690036 11.9690388,9.91724116 14.5,9.91724116 C17.0310138,9.91724116 19.0827691,11.9690036 19.0827691,14.5000263 C19.0827691,17.0309964 17.0309612,19.0828115 14.5,19.0828115 Z"/>
    <circle cx="22" cy="7" r="2"/>
  </g>
</svg>
